<svg xmlns="http://www.w3.org/2000/svg" width="116.502" height="27.37" viewBox="0 0 116.502 27.37">
  <g id="Group_7" data-name="Group 7" transform="translate(0 0)">
    <path id="Path_146" data-name="Path 146" d="M706.2,533.4a2.408,2.408,0,1,0,2.323,2.407A2.272,2.272,0,0,0,706.2,533.4Z" transform="translate(-641.527 -533.4)" fill="#57cc99"/>
    <path id="Path_147" data-name="Path 147" d="M729.674,557.391v15.055h-4.308v-11.39H718.4v6.207c0,1.255.532,1.763,1.455,1.736a5.013,5.013,0,0,0,2.014-.56l.9,3.162a8.017,8.017,0,0,1-3.921,1.035c-2.688,0-4.73-1.539-4.73-4.645v-6.963H709.3v11.411H705V557.383h4.31v.671h4.813V553.92H718.4v4.142h6.968v-.671Z" transform="translate(-642.471 -550.702)" fill="#57cc99"/>
    <path id="Path_148" data-name="Path 148" d="M836.113,533.4a2.408,2.408,0,1,0,2.323,2.407A2.271,2.271,0,0,0,836.113,533.4Z" transform="translate(-751.063 -533.4)" fill="#57cc99"/>
    <path id="Path_149" data-name="Path 149" d="M378.59,556.32V560.4h-4.31V539.64h4.31v11.419l5.512-5.682H389l-5.511,5.793,5.762,9.228h-5.092l-3.638-6.116Z" transform="translate(-363.617 -538.661)" fill="#06335b"/>
    <path id="Path_150" data-name="Path 150" d="M481.984,588.456a5.8,5.8,0,0,1-4.728,1.959c-3.218,0-5.175-1.959-5.175-4.7,0-2.823,2.039-4.506,5.735-4.534h4.142V580.9c0-1.6-1.063-2.509-3.137-2.509a9.528,9.528,0,0,0-4.477,1.314l-1.335-2.975A14.122,14.122,0,0,1,479.8,575c4.031,0,6.353,2.014,6.381,5.4l.028,9.822h-4.227Zm-.028-3.386v-1.343H478.57c-1.651,0-2.462.5-2.462,1.707,0,1.148.9,1.9,2.352,1.9C480.277,587.336,481.7,586.357,481.955,585.07Z" transform="translate(-446.079 -568.476)" fill="#06335b"/>
    <path id="Path_151" data-name="Path 151" d="M599.947,582.894c0,4.56-2.771,7.611-7,7.611a5.693,5.693,0,0,1-4.841-2.352v7.611H583.8v-20.48h4.31v2.21a5.582,5.582,0,0,1,4.757-2.353C597.093,575.142,599.947,578.255,599.947,582.894Zm-4.366-.14c0-2.407-1.51-4.142-3.722-4.142s-3.75,1.706-3.75,4.142c0,2.49,1.538,4.168,3.75,4.168S595.581,585.216,595.581,582.754Z" transform="translate(-540.279 -568.594)" fill="#06335b"/>
    <path id="Path_152" data-name="Path 152" d="M887.367,543.717v1.255h3.553v2.994h-3.553v11.387h-4.281V547.97H881.07v-2.994h2.015v-1.427c0-3.358,2.518-5.149,5.541-5.149a7.437,7.437,0,0,1,3.946,1.063l-1.54,3.137a3.226,3.226,0,0,0-1.882-.643A1.631,1.631,0,0,0,887.367,543.717Z" transform="translate(-790.929 -537.616)" fill="#06335b"/>
    <path id="Path_153" data-name="Path 153" d="M955.144,592.809c-1.063,2.666-2.911,3.946-5.512,3.946a6.058,6.058,0,0,1-4.087-1.455l1.819-3.107a2.917,2.917,0,0,0,1.959.812,2.089,2.089,0,0,0,1.987-1.344l.42-.839-6.24-14.742h4.449l3.946,10.351,3.554-10.351h4.31Z" transform="translate(-845.246 -569.387)" fill="#06335b"/>
    <path id="Path_154" data-name="Path 154" d="M3.41,0A3.41,3.41,0,1,1,0,3.41,3.41,3.41,0,0,1,3.41,0Z" transform="translate(0 0.979)" fill="#57cc99"/>
  </g>
</svg>
